<svg width="28" height="28" viewBox="0 0 28 28" fill="none" xmlns="http://www.w3.org/2000/svg">
<g clip-path="url(#clip0_2_837)">
<rect width="28" height="28" rx="14" fill="white"/>
<path d="M-14.0375 0H42.1118V28.0747H-14.0375V0Z" fill="#012169"/>
<path d="M-14.0375 0V3.13647L35.8334 28.0747H42.1118V24.9382L-7.75906 0H-14.0375ZM42.1118 0V3.13647L-7.75906 28.0747H-14.0375V24.9382L35.8334 0H42.1118Z" fill="white"/>
<path d="M9.3599 0V28.0747H18.7145V0H9.3599ZM-14.0375 9.36005V18.7146H42.1118V9.36005H-14.0375Z" fill="white"/>
<path d="M-14.0375 11.2299V16.8448H42.1118V11.2299H-14.0375ZM11.2297 0V28.0747H16.8447V0H11.2297ZM-14.0375 28.0747L4.67714 18.7146H8.8664L-9.85369 28.0747H-14.0375ZM-14.0375 0L4.67714 9.36005H0.493355L-14.0375 2.09463V0ZM19.2135 9.36005L37.9281 0H42.1118L23.3972 9.36005H19.2135ZM42.1118 28.0747L23.3972 18.7146H27.581L42.1118 25.98V28.0747Z" fill="#C8102E"/>
</g>
<defs>
<clipPath id="clip0_2_837">
<rect width="28" height="28" rx="14" fill="white"/>
</clipPath>
</defs>
</svg>
